<?xml version="1.0" encoding="UTF-8"?>
<svg width="256px" height="256px" viewBox="0 0 256 256" version="1.1" xmlns="http://www.w3.org/2000/svg" xmlns:xlink="http://www.w3.org/1999/xlink">
    <title>02852_Merck_Icon_Teal_CMYK</title>
    <g id="02852_Merck_Icon_Teal_CMYK" stroke="none" stroke-width="1" fill="none" fill-rule="evenodd">
        <path d="M128,127.99693 C163.073647,127.99693 191.498465,156.429262 191.498465,191.5 C226.564438,191.5 255,163.072273 255,127.99693 C255,92.9307969 226.564438,64.5 191.498465,64.5 C191.498465,99.5768775 163.073647,127.99693 128,127.99693 Z M64.5,191.5 C64.5,226.57619 92.9319882,255 127.999233,255 C163.074151,255 191.5,226.57619 191.5,191.5 L64.5,191.5 Z M64.4992325,191.5 C64.4992325,156.429262 92.931908,127.99693 128,127.99693 C92.931908,127.99693 64.4992325,99.5768775 64.4992325,64.5 C29.4296056,64.5 1,92.9307969 1,127.99693 C1,163.072273 29.4296056,191.5 64.4992325,191.5 Z M64.5,64.5 C64.5,29.4282537 92.9319882,1 127.999233,1 C163.074151,1 191.5,29.4282537 191.5,64.5 L64.5,64.5 L64.5,64.5 Z" id="Fill-1" fill="#000000"></path>
    </g>
</svg>